<?xml version="1.0" encoding="utf-8"?>
<!-- Generator: Adobe Illustrator 23.0.3, SVG Export Plug-In . SVG Version: 6.00 Build 0)  -->
<svg version="1.2" baseProfile="tiny" id="Layer_1" xmlns="http://www.w3.org/2000/svg" xmlns:xlink="http://www.w3.org/1999/xlink"
	 x="0px" y="0px" viewBox="0 0 300 300" xml:space="preserve">
<rect fill="#CCCCCC" width="300" height="300"/>
<g>
	<path fill="#999999" d="M237.7,62.25c-38.74-38.74-96.94-46.42-143.43-23.1l-0.05-0.09l-3.76,2.05c-0.22,0.12-0.43,0.27-0.65,0.39
		c-2.2,1.22-4.37,2.5-6.5,3.86c-0.21,0.14-0.44,0.27-0.65,0.41c-2.32,1.5-4.59,3.08-6.83,4.74c-0.27,0.21-0.54,0.42-0.81,0.62
		c-1.84,1.4-3.65,2.86-5.43,4.38c-0.5,0.42-0.99,0.85-1.48,1.27c-1.99,1.75-3.95,3.55-5.85,5.45s-3.7,3.86-5.45,5.85
		c-0.43,0.49-0.85,0.99-1.27,1.48c-1.52,1.78-2.98,3.59-4.38,5.43c-0.21,0.27-0.42,0.53-0.63,0.81c-1.67,2.23-3.25,4.51-4.74,6.82
		c-0.14,0.22-0.27,0.44-0.41,0.66c-1.36,2.13-2.64,4.3-3.86,6.49c-0.12,0.22-0.27,0.43-0.39,0.65l-2.05,3.76l0.09,0.05
		c-23.32,46.5-15.64,104.69,23.1,143.43c24.18,24.18,55.95,36.28,87.72,36.28c19.12,0,38.24-4.41,55.71-13.18l0.05,0.09l3.76-2.05
		c0.22-0.12,0.42-0.26,0.64-0.38c2.2-1.22,4.38-2.51,6.52-3.88c0.21-0.14,0.43-0.27,0.64-0.4c2.32-1.5,4.59-3.08,6.83-4.74
		c0.28-0.21,0.54-0.42,0.82-0.63c1.84-1.4,3.65-2.86,5.43-4.38c0.5-0.42,0.99-0.84,1.48-1.27c1.99-1.75,3.95-3.55,5.85-5.45
		c1.9-1.9,3.7-3.86,5.45-5.85c0.43-0.49,0.85-0.99,1.27-1.48c1.52-1.78,2.98-3.59,4.38-5.43c0.21-0.27,0.42-0.53,0.63-0.81
		c1.67-2.23,3.25-4.51,4.74-6.83c0.14-0.21,0.27-0.44,0.41-0.65c1.36-2.13,2.64-4.3,3.86-6.5c0.12-0.22,0.27-0.43,0.39-0.65
		l2.05-3.76l-0.09-0.05C284.12,159.19,276.45,100.99,237.7,62.25z M149.98,34.52c29.58,0,59.15,11.26,81.67,33.78
		c36,36,43.19,90.03,21.63,133.27l-56.42-30.84c8.31-18.83,4.81-41.66-10.59-57.06c-15.41-15.41-38.23-18.91-57.06-10.6L98.38,46.66
		C114.58,38.59,132.28,34.52,149.98,34.52z M244.9,215.74c-1.04,1.51-2.12,2.98-3.23,4.43c-0.34,0.45-0.68,0.89-1.04,1.34
		c-1.06,1.34-2.16,2.66-3.28,3.96c-0.37,0.43-0.73,0.87-1.11,1.3c-1.48,1.66-3,3.3-4.58,4.88c-1.58,1.58-3.21,3.1-4.88,4.58
		c-0.43,0.38-0.86,0.74-1.3,1.11c-1.3,1.12-2.61,2.22-3.96,3.28c-0.44,0.35-0.89,0.69-1.34,1.04c-1.45,1.11-2.93,2.19-4.43,3.23
		c-0.32,0.22-0.64,0.45-0.96,0.67c-1.86,1.26-3.76,2.48-5.69,3.64l-30.82-56.39c2.83-1.87,5.51-4.05,8-6.54
		c2.49-2.49,4.67-5.17,6.54-8l56.39,30.83c-1.16,1.93-2.37,3.83-3.63,5.69C245.35,215.1,245.13,215.42,244.9,215.74z M176.01,183.87
		c-0.28,0.21-0.56,0.41-0.85,0.62c-1.46,1.06-2.98,2.06-4.59,2.95c-0.06,0.03-0.12,0.07-0.18,0.1l-0.77,0.42
		c-16.1,8.31-36.42,5.74-49.89-7.74c-13.48-13.48-16.05-33.78-7.75-49.87l0.44-0.81c0.02-0.04,0.05-0.08,0.07-0.12
		c0.89-1.62,1.9-3.15,2.96-4.62c0.21-0.28,0.41-0.56,0.62-0.84c1.14-1.49,2.34-2.91,3.65-4.23c1.31-1.31,2.74-2.52,4.22-3.65
		c0.28-0.21,0.56-0.41,0.85-0.62c1.46-1.06,2.98-2.06,4.59-2.94c0.06-0.03,0.12-0.07,0.18-0.1l0.77-0.42
		c6.14-3.17,12.89-4.77,19.64-4.77c10.96,0,21.91,4.17,30.25,12.51c13.48,13.48,16.05,33.78,7.75,49.87l-0.44,0.81
		c-0.02,0.04-0.05,0.08-0.07,0.12c-0.89,1.62-1.9,3.15-2.96,4.62c-0.21,0.28-0.41,0.56-0.62,0.84c-1.14,1.49-2.34,2.91-3.65,4.23
		C178.92,181.53,177.5,182.74,176.01,183.87z M54.4,85.17c0.22-0.32,0.44-0.64,0.67-0.96c1.04-1.51,2.12-2.98,3.23-4.43
		c0.34-0.45,0.68-0.89,1.04-1.34c1.06-1.34,2.16-2.66,3.28-3.96c0.37-0.43,0.73-0.87,1.11-1.3c1.48-1.66,3-3.3,4.58-4.88
		c1.58-1.58,3.21-3.1,4.88-4.58c0.43-0.38,0.86-0.74,1.3-1.11c1.3-1.12,2.61-2.22,3.96-3.28c0.44-0.35,0.89-0.69,1.34-1.04
		c1.45-1.11,2.93-2.19,4.43-3.23c0.32-0.22,0.64-0.45,0.96-0.67c1.86-1.26,3.76-2.48,5.69-3.63l30.82,56.39
		c-2.83,1.87-5.51,4.05-8,6.54c-2.49,2.49-4.67,5.17-6.54,8L50.76,90.85C51.92,88.92,53.14,87.03,54.4,85.17z M68.31,231.64
		c-36-36-43.19-90.03-21.64-133.27l56.42,30.84c-8.31,18.83-4.81,41.66,10.59,57.06c10.01,10.01,23.15,15.01,36.3,15.01
		c7.09,0,14.16-1.51,20.76-4.42l30.84,56.42C158.35,274.83,104.31,267.64,68.31,231.64z"/>
	<path fill="#999999" d="M137.88,137.87c-3.23,3.23-5.01,7.53-5.01,12.1s1.78,8.87,5.01,12.1c3.23,3.23,7.53,5.01,12.1,5.01
		c4.57,0,8.87-1.78,12.1-5.01c3.23-3.23,5.01-7.53,5.01-12.1s-1.78-8.87-5.01-12.1C155.62,131.41,144.34,131.41,137.88,137.87z
		 M156.03,156.02c-3.23,3.23-8.86,3.23-12.1,0c-1.62-1.62-2.51-3.76-2.51-6.05c0-2.28,0.89-4.43,2.51-6.05
		c1.62-1.62,3.76-2.51,6.05-2.51c2.28,0,4.43,0.89,6.05,2.51s2.51,3.76,2.51,6.05C158.54,152.26,157.65,154.41,156.03,156.02z"/>
</g>
</svg>
